<?xml version="1.0" encoding="UTF-8"?>
<svg id="Layer_1" data-name="Layer 1" xmlns="http://www.w3.org/2000/svg" version="1.1" xmlns:xlink="http://www.w3.org/1999/xlink" viewBox="0 0 134.7 51.4">
  <defs>
    <style>
      .cls-1 {
        fill: #545454;
      }

      .cls-1, .cls-2, .cls-3, .cls-4, .cls-5, .cls-6 {
        stroke-width: 0px;
      }

      .cls-2 {
        fill: #000;
      }

      .cls-3 {
        fill: #a6a6a6;
      }

      .cls-4 {
        fill: none;
      }

      .cls-7 {
        clip-path: url(#clippath-1);
      }

      .cls-8 {
        clip-path: url(#clippath);
      }

      .cls-5 {
        fill: #ff914d;
      }

      .cls-6 {
        fill: #ffbd59;
      }
    </style>
    <clipPath id="clippath">
      <rect class="cls-4" x="122.7" y="34.3" width="10.4" height="10.4"/>
    </clipPath>
    <clipPath id="clippath-1">
      <path class="cls-4" d="M127.9,34.3c-2.9,0-5.2,2.3-5.2,5.2s2.3,5.2,5.2,5.2,5.2-2.3,5.2-5.2-2.3-5.2-5.2-5.2Z"/>
    </clipPath>
  </defs>
  <path class="cls-2" d="M15.8,11.3c-.8,0-1.7.5-1.7,2.2-1.2-1.5-2.8-2.4-5.1-2.4-3.9,0-7.6,3.3-7.6,8s3.6,8,7.5,8,3.9-.8,5.1-2.3h0c0,1.2.4,2.1,1.7,2.1s1.7-.9,1.7-2v-11.7c0-1.1-.8-2-1.7-2ZM9.4,23c-2.1,0-3.9-1.7-3.9-3.9s1.8-3.9,3.9-3.9,3.9,1.7,3.9,3.9-1.7,3.9-3.9,3.9Z"/>
  <path class="cls-2" d="M25.7,11.3v-2.5c0-1.2-1-2.2-2.3-2.2s-2.1.9-2.1,2.2v2.5h-1.2c-1.6,0-2.3,1.1-2.3,2s.6,2.1,2.3,2.1h1.2v9.2c0,1.5,1.1,2.3,2.2,2.3s2.2-.8,2.2-2.3v-9.2h1.2c1.4,0,2.2-.9,2.2-2.2s-.8-1.9-2.2-1.9h-1.2Z"/>
  <path class="cls-2" d="M36,11.3v-2.5c0-1.2-1-2.2-2.3-2.2s-2.1.9-2.1,2.2v2.5h-1.2c-1.6,0-2.3,1.1-2.3,2s.6,2.1,2.3,2.1h1.2v9.2c0,1.5,1.1,2.3,2.2,2.3s2.2-.8,2.2-2.3v-9.2h1.2c1.4,0,2.2-.9,2.2-2.2s-.8-1.9-2.2-1.9h-1.2Z"/>
  <path class="cls-2" d="M48.7,11.1c-2.2,0-3.9.8-5.1,2.3,0-1.6-.9-2.2-1.7-2.2s-1.7.9-1.7,2v11.7c0,1.1.6,2,1.7,2h.5c1.2,0,2.2-1,2.2-2.2v-4.9c0-2.6,1.7-4.4,4.1-4.4s2.2-1.1,2.2-2.2-.6-2.2-2.2-2.2Z"/>
  <path class="cls-2" d="M65.1,11.3c-.8,0-1.7.5-1.7,2.2-1.2-1.5-2.8-2.4-5.1-2.4-3.9,0-7.6,3.3-7.6,8s3.6,8,7.5,8,3.9-.8,5.1-2.3h0c0,1.2.4,2.1,1.7,2.1s1.7-.9,1.7-2v-11.7c0-1.1-.8-2-1.7-2ZM58.8,23c-2.1,0-3.9-1.7-3.9-3.9s1.8-3.9,3.9-3.9,3.9,1.7,3.9,3.9-1.7,3.9-3.9,3.9Z"/>
  <path class="cls-2" d="M82.1,22.1c-1-1.2-2.3-.6-3.2,0-.8.7-1.7.9-2.6.9-2.3,0-3.8-1.9-3.8-3.9s1.5-3.9,3.8-3.9,1.8.3,2.6.9c.9.6,2.2,1.2,3.2,0,.6-.8.7-2-.3-3-1.3-1.2-3.3-2-5.4-2-4.4,0-8.2,3.3-8.2,8s3.7,8,8.2,8,4.1-.8,5.4-2.1c1.1-1,1-2.3.4-3Z"/>
  <path class="cls-2" d="M90.3,11.3v-2.5c0-1.2-1-2.2-2.3-2.2s-2.1.9-2.1,2.2v2.5h-1.2c-1.6,0-2.3,1.1-2.3,2s.6,2.1,2.3,2.1h1.2v9.2c0,1.5,1.1,2.3,2.2,2.3s2.2-.8,2.2-2.3v-9.2h1.2c1.4,0,2.2-.9,2.2-2.2s-.8-1.9-2.2-1.9h-1.2Z"/>
  <path class="cls-2" d="M96.8,9.8c1.3,0,2.4-1.1,2.4-2.3s-1.1-2.4-2.4-2.4-2.3,1-2.3,2.4,1,2.3,2.3,2.3ZM96.7,26.9c1.2,0,2.2-1,2.2-2.2v-11.3c0-1.2-.9-2.2-2.1-2.2s-2.3.9-2.3,2.2v11.3c0,1.2,1,2.2,2.2,2.2Z"/>
  <path class="cls-2" d="M108.5,27.1c4.4,0,8-3.6,8-8s-3.6-8-8-8-8,3.6-8,8,3.6,8,8,8ZM108.5,23c-2.1,0-3.9-1.7-3.9-3.9s1.8-3.9,3.9-3.9,3.9,1.7,3.9,3.9-1.7,3.9-3.9,3.9Z"/>
  <path class="cls-2" d="M126,11.1c-1.7,0-3.4.6-4.6,2-.1-1.3-1-1.8-1.7-1.8s-1.7.9-1.7,2v11.7c0,1.2,1.1,2.1,2.3,2.1s2.2-.9,2.2-2.1v-6.3c0-1.9,1.3-3.4,3.3-3.4s3.2,1.6,3.2,3.4v6.3c0,1.2,1,2.1,2.2,2.1s2.2-.9,2.2-2.1v-6c0-4.3-3-7.7-7.3-7.7Z"/>
  <path class="cls-3" d="M86,44.6c.6,0,1.1-.5,1.1-1.1v-9.9c0-.6.2-1.2.7-1.7.4-.4,1-.7,1.7-.7s1.2.2,1.7.7.7,1,.7,1.6v9.9c0,.6.5,1.1,1.1,1.1s1.1-.5,1.1-1.1v-9.9c0-.6.2-1.2.7-1.7.4-.4,1-.7,1.6-.7s1.2.2,1.7.7c.4.4.7,1,.7,1.7v9.9c0,.6.5,1.1,1.1,1.1s1.1-.5,1.1-1.1v-10c0-1.2-.5-2.3-1.3-3.2-.8-.8-2-1.3-3.2-1.3s-2.6.6-3.4,1.6c-.9-1-2.1-1.6-3.4-1.6s-2.3.5-3.2,1.3c-.8.8-1.3,1.9-1.3,3.2v10c0,.6.5,1.1,1.1,1.1Z"/>
  <path class="cls-3" d="M103.4,44.6c.6,0,1-.4,1-1v-5.6l6.9,6.3c.2.2.5.3.7.3s.5-.1.7-.3c.2-.2.3-.4.3-.7s-.1-.5-.3-.7l-6.8-6.3,6.4-5.6c.2-.2.3-.4.3-.8s-.1-.5-.3-.8c-.2-.2-.5-.3-.7-.3s-.5,0-.7.3l-6.4,5.7v-4.9c0-.6-.5-1-1-1s-1,.5-1,1v13.4c0,.6.5,1,1,1Z"/>
  <path class="cls-3" d="M118.3,44.6c.6,0,1-.5,1-1v-12.5h3.7c.6,0,1-.4,1-1s-.1-.5-.3-.7c-.2-.2-.5-.3-.7-.3h-9.5c-.6,0-1,.5-1,1s.5,1,1,1h3.7v12.5c0,.6.4,1,1,1Z"/>
  <g class="cls-8">
    <g class="cls-7">
      <path class="cls-6" d="M122.7,34.3h10.4v10.4h-10.4v-10.4Z"/>
    </g>
  </g>
  <path class="cls-1" d="M2.1,33.9c.1,0,.2-.1.2-.2v-.8h.8c.8,0,1.4-.6,1.4-1.3s-.6-1.4-1.4-1.4h-1c-.1,0-.3.1-.3.2v3.2c0,.1.1.2.3.2ZM2.3,30.7h.8c.5,0,.9.4.9.9s-.3.9-.9.9h-.8v-1.8Z"/>
  <path class="cls-1" d="M6,34c.8,0,1.4-.6,1.4-1.4s-.6-1.4-1.4-1.4-1.4.6-1.4,1.4.6,1.4,1.4,1.4ZM6,33.5c-.5,0-.9-.4-.9-.9s.4-.9.9-.9.9.4.9.9-.4.9-.9.9Z"/>
  <path class="cls-1" d="M8.5,33.9c.1,0,.2,0,.3-.2l.5-1.2.5,1.1c0,.2.2.2.3.2s.2,0,.2-.2l.9-2.1c0-.2,0-.3-.2-.3-.1,0-.2,0-.2.2l-.7,1.9-.5-1.2.2-.6c0-.2,0-.3-.2-.3-.1,0-.2,0-.2.2l-.7,1.9-.7-1.9c0,0,0-.2-.2-.2-.2,0-.3.2-.2.4l.9,2.1c0,.2.2.2.3.2Z"/>
  <path class="cls-1" d="M12.5,31.2c-.8,0-1.4.6-1.4,1.4s.6,1.4,1.4,1.4.7-.1,1-.4c.1-.1.1-.3,0-.3-.1-.1-.3,0-.4,0-.2.2-.4.2-.6.2-.4,0-.8-.3-.9-.7h1.9c.2,0,.2-.1.2-.3,0-.7-.5-1.3-1.3-1.3ZM11.6,32.3c.1-.4.4-.7.9-.7s.8.3.8.7h-1.7Z"/>
  <path class="cls-1" d="M15.5,31.2c-.5,0-.8.2-1.1.6v-.3c0-.2-.1-.3-.2-.3s-.2.1-.2.2v2.2c0,.1,0,.2.2.2h0c.1,0,.2-.1.2-.2v-1c0-.5.4-1,1-1s.3-.1.3-.3,0-.2-.3-.2Z"/>
  <path class="cls-1" d="M17.2,31.2c-.8,0-1.4.6-1.4,1.4s.6,1.4,1.4,1.4.7-.1,1-.4c.1-.1.1-.3,0-.3-.1-.1-.3,0-.4,0-.2.2-.4.2-.6.2-.4,0-.8-.3-.9-.7h1.9c.2,0,.2-.1.2-.3,0-.7-.5-1.3-1.3-1.3ZM16.3,32.3c.1-.4.4-.7.9-.7s.8.3.8.7h-1.7Z"/>
  <path class="cls-1" d="M21.1,30.2c-.1,0-.2.1-.2.3v1.2c-.2-.2-.5-.4-.9-.4-.8,0-1.4.6-1.4,1.4s.6,1.4,1.3,1.4.8-.2,1-.6v.3c0,.2.1.3.2.3s.2,0,.2-.2v-3.2c0-.1-.1-.3-.2-.3ZM20,33.5c-.5,0-.9-.4-.9-.9s.4-.9.9-.9.9.4.9.9-.4.9-.9.9Z"/>
  <path class="cls-1" d="M24.4,31.2c-.4,0-.7.2-.9.4v-1.2c0-.1,0-.3-.2-.3s-.3.1-.3.3v3.2c0,.1,0,.2.2.2s.2,0,.2-.3v-.3c.2.4.6.6,1,.6.7,0,1.3-.6,1.3-1.4s-.6-1.4-1.4-1.4ZM24.4,33.5c-.5,0-.9-.4-.9-.9s.4-.9.9-.9.9.4.9.9-.4.9-.9.9Z"/>
  <path class="cls-1" d="M28.2,31.2c-.1,0-.2,0-.2.2l-.8,1.9-.8-1.9c0,0-.1-.2-.2-.2-.2,0-.3.2-.2.4l1,2.2c-.2.4-.4.7-.8.7-.2,0-.2,0-.2.2s.1.2.3.2c.5,0,.9-.3,1.2-1l1.1-2.4c0-.2,0-.4-.2-.4Z"/>
  <path class="cls-5" d="M30.6,33.2v-2.6c0-.2-.2-.4-.4-.4s-.4.2-.4.4v3c0,.2.1.4.4.4h1.8c.2,0,.4-.2.4-.4s-.2-.3-.4-.3h-1.5Z"/>
  <path class="cls-5" d="M35,32.4c0-.6-.5-1.2-1.3-1.2s-1.4.6-1.4,1.4.5,1.4,1.3,1.4.8-.2.9-.3c.2-.1.2-.3,0-.4,0-.2-.3-.2-.4,0-.2.1-.3.2-.5.1-.3,0-.6-.2-.6-.5h1.5c.2,0,.3-.1.3-.4ZM33.1,32.3c0-.3.3-.5.6-.5s.6.2.6.5h-1.2Z"/>
  <path class="cls-5" d="M37.6,31.2c-.1,0-.3,0-.3.4-.2-.3-.5-.4-.9-.4-.7,0-1.3.6-1.3,1.4s.6,1.4,1.3,1.4.7-.1.9-.4h0c0,.2,0,.4.3.4s.3-.2.3-.3v-2c0-.2-.1-.3-.3-.3ZM36.5,33.2c-.4,0-.7-.3-.7-.7s.3-.7.7-.7.7.3.7.7-.3.7-.7.7Z"/>
  <path class="cls-5" d="M40.5,30.2c-.2,0-.4.2-.4.4v.8c-.2-.1-.4-.2-.6-.2-.8,0-1.4.6-1.4,1.4s.6,1.4,1.3,1.4.7-.1.9-.4c0,.3.2.4.3.4s.3-.2.3-.3v-3c0-.2-.2-.4-.4-.4ZM39.5,33.2c-.4,0-.7-.3-.7-.7s.3-.7.7-.7.7.3.7.7-.3.7-.7.7Z"/>
  <path class="cls-1" d="M41.7,33.9c.2,0,.4-.2.4-.4v-.6h.6c.8,0,1.4-.6,1.4-1.3s-.6-1.4-1.4-1.4h-1c-.2,0-.4.2-.4.4v3c0,.2.2.4.4.4ZM42.1,30.9h.6c.4,0,.6.3.6.7s-.3.7-.6.7h-.6v-1.4Z"/>
  <path class="cls-1" d="M46.7,31.2c-.1,0-.3,0-.3.4-.2-.3-.5-.4-.9-.4-.7,0-1.3.6-1.3,1.4s.6,1.4,1.3,1.4.7-.1.9-.4h0c0,.2,0,.4.3.4s.3-.2.3-.3v-2c0-.2-.1-.3-.3-.3ZM45.6,33.2c-.4,0-.7-.3-.7-.7s.3-.7.7-.7.7.3.7.7-.3.7-.7.7Z"/>
  <path class="cls-1" d="M48.4,31.2v-.4c0-.2-.2-.4-.4-.4s-.4.2-.4.4v.4h-.2c-.3,0-.4.2-.4.3s.1.4.4.4h.2v1.6c0,.3.2.4.4.4s.4-.1.4-.4v-1.6h.2c.2,0,.4-.2.4-.4s-.1-.3-.4-.3h-.2Z"/>
  <path class="cls-1" d="M50.6,31.2c-.4,0-.7.1-.9.4,0-.3-.2-.4-.3-.4s-.3.2-.3.3v2c0,.2,0,.3.3.3h0c.2,0,.4-.2.4-.4v-.8c0-.4.3-.8.7-.8s.4-.2.4-.4-.1-.4-.4-.4Z"/>
  <path class="cls-1" d="M52.3,33.9c.8,0,1.4-.6,1.4-1.4s-.6-1.4-1.4-1.4-1.4.6-1.4,1.4.6,1.4,1.4,1.4ZM52.3,33.2c-.4,0-.7-.3-.7-.7s.3-.7.7-.7.7.3.7.7-.3.7-.7.7Z"/>
  <path class="cls-1" d="M55.3,31.2c-.3,0-.6.1-.8.3,0-.2-.2-.3-.3-.3s-.3.2-.3.3v2c0,.2.2.4.4.4s.4-.2.4-.4v-1.1c0-.3.2-.6.6-.6s.6.3.6.6v1.1c0,.2.2.4.4.4s.4-.2.4-.4v-1c0-.7-.5-1.3-1.3-1.3Z"/>
</svg>